<svg width="660" height="507" viewBox="0 0 660 507" fill="none" xmlns="http://www.w3.org/2000/svg">
<g clip-path="url(#clip0_6083_8273)">
<path d="M408.461 6.09068C409.191 7.07791 409.017 8.80974 409.639 9.92246L415.226 10.14L426.946 94.9328C427.336 96.2631 425.369 95.9451 425.253 96.6061C424.896 98.5387 427.469 102.605 425.336 104.052L384.647 109.892L321.662 72.6616V71.4401C325.065 69.6916 324.318 66.4036 325.447 64.3789C329.863 56.4309 353.395 32.9968 360.799 26.9982C367.722 21.3927 375.259 17.084 383.46 12.5746C385.56 11.42 389.776 6.96915 390.2 6.84365C391.594 6.42534 393.337 6.96078 394.798 6.46717C396.989 5.73093 399.231 3.37162 401.621 3.30469C403.099 3.26286 407.647 5.01142 408.444 6.09905L408.461 6.09068Z" fill="#46B88E"/>
<path d="M446.809 102.78L449.05 118.25L442.709 124.039L452.653 135.777C454.579 137.007 457.152 134.288 458.754 134.631C459.642 134.824 460.223 136.246 460.978 136.522C465.145 138.07 467.444 136.371 465.842 142.755L453.433 144.98L460.945 197.948C459.343 198.157 457.085 197.538 455.649 198.056C453.757 198.734 455.849 201.796 450.536 202.147C446.535 202.415 448.063 200.851 446.867 200.073C444.394 198.458 433.802 201.604 429.959 201.261L403.671 189.908L409.971 173.351L402.908 108.578L446.818 102.772L446.809 102.78Z" fill="#BAE0D2"/>
<path d="M464.249 3.33813C466.066 13.1937 465.834 23.9193 467.76 33.6745C468.208 35.9585 469.677 35.6406 470.001 36.5525L474.973 64.6216C474.608 65.7677 473.861 65.7175 472.914 65.9518C470.607 66.5123 457.351 67.9095 456.82 68.5286L461.767 98.5554L427.776 103.575C427.818 99.9861 425.601 98.3881 428.606 95.7611L416.96 8.3914L410.362 8.34957V4.1664C428.407 3.78155 446.402 5.87313 464.249 3.33813Z" fill="#BAE0D2"/>
<path d="M437.72 321.568C432.823 321.217 432.15 324.79 429.727 326.463C413.989 337.331 397.247 346.835 381.368 357.494C380.803 352.7 376.67 356.573 374.279 355.067C371.889 353.561 373.042 350.248 371.914 347.747C371.274 346.316 368.128 345.546 367.182 344.593C366.568 343.974 367.174 341.89 365.24 340.736C363.87 339.916 362.177 340.267 361.372 339.414C357.919 335.791 360.716 312.608 359.786 306.534C368.419 308.676 369.54 301.665 376.031 299.925L377.608 301.514C378.745 299.498 381.21 299.322 382.613 298.201C383.783 297.264 384.065 295.415 385.535 294.462C387.743 293.023 392.798 293.173 394.864 291.508C396.259 290.387 394.508 290.881 397.537 289.057C399.496 287.877 403.306 284.681 405.182 284.188C407.847 283.485 409.623 284.547 411.648 284.43C412.877 284.363 414.039 282.958 415.732 283.108C417.965 283.309 422.555 291.433 425.352 293.533C427.818 295.39 438.152 299.281 439.04 300.669L431.188 316.984L437.728 321.552L437.72 321.568Z" fill="#BAE0D2"/>
<path d="M401.248 109.415L408.444 173.208L401.356 190.041L414.379 196.425C414.919 203.419 416.33 206.715 412.827 213.166C412.196 214.32 410.743 214.187 410.013 216.245C408.361 220.93 412.553 223.707 412.86 226.853C413.242 230.76 410.909 237.914 411.192 242.239L402.484 238.926L400.409 247.25L384.24 238.114C381.384 241.662 381.202 245.117 375.549 243.904C377.591 237.696 375.317 230.61 374.86 224.235L387.145 203.402C387.145 202.131 371.333 200.29 386.356 191.639L377.218 107.767C378.048 106.888 383.36 111.49 385.186 111.682C387.626 111.942 400.376 108.553 401.248 109.423V109.415Z" fill="#027E50"/>
<path d="M352.274 91.946C353.52 93.703 345.991 103.466 344.929 105.675L349.876 109.03C347.942 110.277 349.261 115.037 349.029 115.263C348.34 115.941 342.945 113.774 345.7 120.266C338.77 117.79 334.022 128.507 329.141 129.963C326.51 130.749 322.675 128.038 321.778 130.841L320.849 141.123L326.634 141.993L327.464 151.171L308.788 149.473L306.92 150.728L307.56 153.681L294.295 152.853C293.972 149.063 293.59 142.872 292.262 139.45C291.465 137.384 286.592 134.497 286.841 133.234C287.555 129.661 290.56 133.46 290.792 133.56C295.507 135.761 293.706 133.251 295.491 131.937C296.719 131.034 298.977 130.908 299.707 129.477C300.969 126.993 299.201 123.947 299.367 123.705C299.94 122.876 307.228 120.375 305.908 118.61L303.003 117.112C299.317 121.772 298.437 120.308 293.482 120.258C294.287 117.614 297.532 117.907 299.251 116.476C303.799 112.695 298.927 112.828 298.661 112.586C298.08 112.067 298.504 109.842 297.109 109.432L293.897 110.252L294.312 108.57C291.589 109.038 287.979 109.356 287.663 112.736C286.053 113.029 287.315 110.804 286.792 110.293C286.368 109.883 284.492 110.611 283.671 110.109C283.455 109.975 281.346 105.901 281.338 105.65C281.33 105.399 282.592 101.157 282.758 100.781C286.144 93.0086 287.024 96.7399 292.926 94.2384C298.827 91.7369 296.719 86.8509 298.437 85.596C299.201 85.0438 300.828 85.2864 301.708 84.7175C308.34 80.434 307.194 81.5467 313.992 78.7189C316.258 77.7735 317.761 74.2345 320.542 73.674L352.274 91.9377V91.946Z" fill="#46B88E"/>
<path d="M330.926 176.095L327.356 140.437L322.5 140.32L323.331 131.134C325.364 130.883 327.099 132.213 329.149 131.644C331.946 130.866 337.624 123.412 339.923 122.383C342.048 121.429 345.908 122.684 347.02 121.136L346.539 116.945L350.34 116.167L351.345 109.089L347.751 106.085C346.389 103.96 352.922 95.9033 354.408 93.5942L375.383 106.679L381.094 159.17L348.406 181.098L330.942 176.095H330.926Z" fill="#BAE0D2"/>
<path d="M384.572 191.179C383.725 191.999 379.243 193.723 379.044 193.965C378.388 194.743 378.753 198.818 377.226 200.073L384.638 204.222L373.399 222.988L374.595 241.285C369.166 244.297 363.306 242.046 357.728 243.921L356.441 235.588L348.954 236.039C346.995 234.634 349.195 227.347 347.825 225.481C347.12 224.527 345.045 224.887 343.982 224.285C343.609 224.067 340.554 218.37 339.517 217.148C337.699 215.023 335.076 212.438 332.536 211.2L332.901 204.599L321.645 203.829L322.268 194.149L320.027 192.886L325.746 176.605L348.365 182.796L380.92 161.228L384.547 191.196L384.572 191.179Z" fill="#46B88E"/>
<path d="M439.38 394.247L414.504 396.765L415.342 404.261C412.503 402.688 407.763 403.525 405.414 402.136C404.012 401.316 403.173 398.137 400.716 397.828C399.646 397.694 397.579 398.798 397.13 398.405C396.823 398.137 394.723 392.122 394.026 390.917C392.922 389.018 391.129 387.119 389.668 385.445L389.652 384.241L391.926 383.044C390.457 380.007 392.167 375.975 389.643 373.774L391.345 372.846C390.93 369.165 390.988 365.927 386.332 365.843L388.805 360.84L385.692 360.656L385.037 356.674L412.918 339.514L438.509 353.402L429.511 368.077L434.408 371.7L431.179 368.094C432.084 365.073 441.107 355.762 439.853 353.335L413.682 338.719C418.845 334.26 424.887 331.048 430.557 327.316C431.594 326.638 431.935 325.158 432.814 324.58C433.113 324.38 438.749 321.794 439.09 321.761C440.692 321.594 448.635 326.597 451.59 327.249C457.392 328.538 464.547 327.559 470.408 328.998L473.421 320.799L477.505 320.322L483.232 324.196L479.912 347.931C483.041 354.356 479.19 360.949 482.493 367.19L481.655 384.232C479.605 383.655 476.342 385.504 474.765 385.136C473.977 384.952 473.977 383.446 473.346 383.003C472.997 382.76 467.643 381.881 466.739 381.731L466.34 385.061C464.523 383.647 460.679 384.45 459.028 383.429C457.816 382.676 458.737 380.058 456.388 380.032C454.064 380.007 451.424 385.01 448.179 384.299C447.589 384.174 444.319 375.046 440.21 375.891C442.667 378.911 446.212 380.15 446.56 384.676L439.38 394.264C441.464 392.205 444.153 388.474 446.054 387.202C449.142 385.136 453.807 384.023 456.786 380.903L456.878 384.165L467.976 386.767L468.407 383.412C471.387 382.434 474.3 386.541 474.666 386.633C475.645 386.876 480.244 385.471 481.663 385.086C480.808 387.964 478.932 388.834 478.434 392.264C478.102 394.531 477.538 399.827 480.003 400.957C480.327 397.719 479.48 393.803 480.186 390.691C480.543 389.093 482.037 387.922 482.543 386.391C484.22 381.363 483.456 360.388 483.215 353.729C483.149 351.813 481.406 350.533 481.231 348.793C480.733 343.882 484.211 336.226 483.722 330.771C484.726 329.458 484.676 330.336 485.531 330.646C490.47 332.461 496.264 336.536 500.729 337.908C505.195 339.28 511.362 339.079 516.119 340.602C519.065 340.066 515.255 331.801 518.974 332.47L517.322 390.106C515.571 390.139 513.778 389.93 512.026 390.206C507.685 390.884 485.581 394.481 483.722 395.928C476.84 401.308 484.054 404.964 481.447 412.017C480.567 414.41 479.339 415.606 477.529 417.254C480.028 417.606 479.497 415.899 482.501 416.836C483.639 420.174 481.92 419.354 481.663 421.479C481.514 422.751 485.282 429.143 486.295 431.009C486.843 432.021 488.212 432.523 488.304 432.707C489.673 435.326 488.113 438.187 488.229 440.647C488.378 443.868 489.889 447.114 488.727 450.243L461.792 434.799C461.808 433.753 470.333 427.804 470.059 425.194L459.858 434.246L422.231 412.41C418.637 407.491 415.699 404.186 416.18 397.635L438.849 395.979C439.862 395.828 439.264 394.414 439.397 394.289L439.38 394.247Z" fill="#46B88E"/>
<path d="M482.493 416.794C482.311 416.267 481.414 415.322 481.663 415.129L516.475 409.273C514.824 416.752 519.821 420.132 522.286 425.964L502.746 438.48C502.024 439.969 509.694 447.591 508.814 452.192C508.266 454.669 504.324 455.246 503.419 456.308C503.087 456.702 503.327 457.906 502.971 458.258C501.518 459.672 499.725 460.659 498.571 462.625L488.287 459.379L490.694 447.365C489.059 443.366 490.636 438.572 489.939 434.732C489.623 433.016 488.353 432.816 488.295 432.665C487.283 430.164 482.792 422.81 482.759 422.216C482.684 420.919 485.241 419.287 484.983 418.066C484.344 416.911 483.431 417.087 482.493 416.794Z" fill="#027E50"/>
<path d="M517.314 0C518.634 3.09554 514.973 6.07396 514.898 7.88109C514.849 9.2699 515.795 10.7173 515.621 12.8842C515.355 16.0801 510.441 21.3258 517.314 21.7274C518.21 25.0404 514.375 24.5719 513.944 27.1655C513.379 30.5706 516.857 30.9722 516.476 34.2434C515.015 34.2434 515.172 31.2901 513.604 31.0893C513.33 31.0558 511.62 31.7252 511.47 32.2941C510.491 36.1091 512.408 47.8136 513.994 51.7793L510.765 51.8713C510.607 57.9034 507.104 56.5648 504.241 58.2213C503.178 58.8321 503.145 59.9281 502.157 60.405C497.999 62.3961 495.259 62.2539 491.425 62.873C486.519 63.6678 481.588 64.3873 476.691 65.157C475.986 60.681 475.728 56.0377 474.807 51.5952C473.728 46.3746 471.976 37.0043 469.212 33.6578L465.909 3.33817L517.314 0Z" fill="#BAE0D2"/>
<path d="M402.908 241.386L420.314 247.267C416.28 254.797 422.514 262.435 422.032 269.363C421.899 271.228 418.239 279.687 417.077 280.942C414.985 283.217 408.203 281.937 405.365 282.707C403.306 283.267 400.708 285.627 398.533 286.689C396.359 287.752 394.151 286.137 394.524 289.701C388.697 289.601 384.713 295.34 381.102 297.624C378.438 299.314 374.03 297.892 371.432 299.465C368.751 301.088 367.498 307.112 360.625 304.853C362.426 302.644 360.459 300 360.965 298.143C361.297 296.93 362.966 296.018 363.049 294.445C363.173 292.211 360.741 290.086 360.957 287.3C361.04 286.204 362.501 281.234 363.065 280.389C363.671 279.494 364.958 279.411 365.605 278.599C368.319 275.177 365.53 274.023 365.746 272.876C366.576 268.325 367.539 261.925 369.481 257.24C370.245 255.408 372.27 254.061 372.851 252.446C373.864 249.626 373.067 245.962 373.059 243.051L375.167 245.611C381.185 246.347 382.223 244.983 384.24 239.721L400.011 248.698C401.87 248.539 403.165 243.117 402.908 241.377V241.386Z" fill="#027E50"/>
<path d="M327.472 152.845L329.124 175.4L324.974 174.923L318.383 193.405L320.625 194.969L320.002 202.967C317.844 202.767 315.868 201.612 313.702 201.386C310.697 201.077 303.924 200.558 301.176 200.675C299.931 200.734 299.201 202.047 298.18 201.988C296.387 201.888 293.847 197.914 292.66 198.793L292.237 206.289L288.917 202.147L287.655 204.641C283.488 201.612 276.731 202.9 271.925 203.804V200.449L261.965 200.466C262.214 195.254 260.197 189.372 261.16 184.193C261.832 180.571 267.476 179.249 270.207 177.442C272.141 176.162 274.274 172.874 276.69 172.246C279.537 171.51 282.284 173.175 285.497 172.849C295.457 171.845 294.901 162.349 295.117 154.518L309.22 155.355L308.39 151.188L327.464 152.845H327.472Z" fill="#027E50"/>
<path d="M532.238 231.363C532.769 239.127 530.678 246.983 533.766 254.32L528.163 278.44L494.106 284.815C493.574 281.603 496.289 278.984 496.554 275.947C496.803 273.094 495.434 271.019 495.932 267.915C496.38 265.129 498.613 263.163 499.493 260.603C499.991 259.139 503.128 247.552 503.161 246.84C503.303 244.222 498.322 235.596 502.564 233.22C504.265 232.266 514.898 232.559 517.687 232.166C519.098 231.965 520.086 230.442 521.871 230.442C523.406 230.442 524.411 231.756 525.183 231.798C527.208 231.915 529.956 230.869 532.238 231.371V231.363Z" fill="#027E50"/>
<path d="M487.465 318.239C487.283 318.406 486.162 318.138 485.423 319.067C484.684 319.996 484.427 322.02 484.145 323.25L476.259 318.239L475.404 319.971L472.549 319.075L470.491 326.613L468.025 327.475C462.414 325.911 456.396 327.124 450.793 325.542C445.257 323.978 438.683 318.799 432.748 317.394C435.686 313.595 438.592 302.794 441.472 299.891C443.223 298.126 444.867 299.071 446.834 298.62L444.327 296.888C442.543 297.741 440.642 299.122 438.542 298.67C436.716 298.277 425.485 292.136 424.016 290.713C421.982 288.747 420.513 285.091 418.214 283.125L418.147 281.494C419.509 277.955 423.427 273.086 423.684 269.371C424.157 262.452 417.666 255.265 421.941 248.422C423.983 246.799 435.23 253.684 438.102 253.818C441.812 253.985 450.154 252.304 453.475 250.597L453.491 253.927L448.519 255.182C451.15 260.268 454.811 260.57 460.107 259.775C462.306 265.899 454.877 272.818 454.703 277.235C454.637 278.85 455.99 280.046 456.014 281.895C456.039 284.522 453.773 288.262 453.516 291.215C453.325 293.508 455.533 296.419 452.644 297.783C450.785 298.661 447.706 297.373 446.842 299.858C451.574 300.519 455.931 298.896 456.479 293.968L493.259 286.505C493.815 289.81 492.338 292.93 492.362 296.11C492.387 299.682 494.678 305.698 492.504 308.701C491.732 309.764 489.358 310.224 488.71 311.562C487.938 313.144 488.204 316.105 487.465 318.247C490.951 315.16 488.727 314.081 490.005 312.106C491.093 310.416 494.122 309.797 494.753 307.639C495.932 303.631 493.715 299.774 493.715 296.118C493.715 293.006 495.442 289.81 494.977 286.555L527.258 280.665C524.992 296.168 520.028 311.328 517.048 326.747C516.832 327.877 517.272 328.973 517.081 330.102C516.658 332.512 514.508 335.54 515.654 339.121C510.914 337.816 505.386 337.665 500.746 336.193C495.127 334.411 489.324 329.483 483.331 329.09C484.17 325.266 486.228 321.878 487.473 318.239H487.465Z" fill="#46B88E"/>
<path d="M445.963 201.403L446.071 203.704L455.965 202.967V199.621L460.904 199.671L465.087 228.016C457.218 228.133 449.308 227.891 441.43 227.983C437.861 228.025 434.931 229.33 430.756 228.777C428.357 228.46 412.229 222.628 411.573 221.331C411.407 220.997 411.059 215.801 411.241 215.575C411.565 215.165 413.333 215.257 414.006 214.73C414.163 214.613 416.122 211.802 416.13 211.61C416.155 211.074 415.317 210.313 415.533 209.786C415.591 209.652 416.836 209.694 416.985 209.091C417.874 205.494 415.458 200.909 416.18 197.111C416.62 196.5 427.701 202.741 429.926 202.951C432.516 203.193 444.884 200.298 445.963 201.386V201.403Z" fill="#027E50"/>
<path d="M464.963 229.815C465.502 230.15 466.598 237.47 466.307 238.106C465.884 239.051 456.629 244.807 454.72 246.414C453.35 247.56 452.429 250.036 451.258 250.446C450.088 250.856 437.787 252.32 436.691 252.111C434.558 251.71 431.304 249.116 428.83 248.271C425.983 247.301 413.732 244.774 412.96 242.54L413.682 224.695C414.313 223.992 428.208 230.275 430.773 230.509C433.18 230.727 435.031 229.689 437.272 229.673C446.494 229.606 455.749 229.698 464.963 229.823V229.815Z" fill="#BAE0D2"/>
<path d="M517.314 390.909V403.851C517.314 404.496 516.085 406.545 516.085 407.625L482.501 413.456C482.07 413.079 484.145 408.537 484.07 407.165C483.888 403.743 478.559 400.446 485.581 396.104L517.314 390.909Z" fill="#027E50"/>
<path d="M498.248 463.579L495.683 467.335L497.409 471.075C493.533 471.728 491.698 474.723 487.565 472.665C486.237 470.046 488.835 467.101 488.976 465.52C489.092 464.265 486.868 462.851 487.465 461.077L498.239 463.587L498.248 463.579Z" fill="#027E50"/>
<path d="M166.633 340.786L169.945 282.322L174.568 281.544L174.925 277.302L215.556 278.139L215.681 285.945L216.884 287.183L218.86 286.488L219.698 312.391L230.472 311.554V340.786H166.633Z" fill="#46B88E"/>
<path d="M96.4522 219.323C96.9751 219.6 97.4814 220.361 98.3696 220.353C102.038 217.608 104.545 218.755 108.596 218.838C107.558 224.921 110.015 236.29 108.621 241.645C108.397 242.498 106.927 242.473 106.554 243.05C105.882 244.088 105.799 251.082 106.131 252.513C106.288 253.19 107.633 252.739 107.832 254.286C108.812 261.824 106.936 271.504 107.816 279.31C105.384 279.996 102.893 281.469 100.519 282.138C97.166 283.092 93.3146 284.146 89.6125 285.2C88.6248 285.484 87.2552 284.606 86.0018 284.957C85.014 285.233 82.0009 287.919 81.2373 288.99C83.5863 289.802 84.6737 286.898 85.952 286.614C87.1141 286.355 88.384 287.392 89.7287 287.149C92.5841 286.647 100.619 282.213 105.068 281.594C106.728 281.36 107.816 282.983 109.783 283.2C111.567 283.393 119.826 282.774 120.192 283.15L119.245 338.586L118 339.832L58.0041 338.284L59.7472 279.904L61.7476 279.31C65.0014 279.553 65.1758 284.313 66.8027 286.396C70.3221 290.931 77.585 292.847 81.2207 287.333C74.8293 289.392 72.7292 291.065 67.973 285.217C66.0058 282.799 65.1675 278.49 62.2457 277.762C60.9757 277.444 59.5231 278.457 57.7634 277.344C56.7756 276.725 56.4851 274.14 53.8704 274.767C52.8578 271.053 58.5851 268.4 59.4401 267.053C60.2286 265.807 59.4401 263.481 61.3409 261.858C62.8101 260.603 69.7244 258.419 72.032 256.763C73.053 256.027 76.7301 252.571 76.9625 251.634C76.0827 249.526 77.2032 245.937 76.9044 244.498C76.6554 243.26 74.6135 241.494 74.1403 239.737C73.5593 237.57 74.0407 235.537 73.5925 233.605C73.1028 231.505 70.347 229.915 71.3846 227.28L79.6104 225.113C80.2827 219.825 91.5548 218.094 95.7881 218.094C96.2612 218.094 96.1201 219.139 96.4272 219.307L96.4522 219.323Z" fill="#46B88E"/>
<path d="M56.759 277.771C57.174 278.273 57.9211 277.896 58.0954 279.352C58.6598 284.071 58.195 291.918 58.0788 296.972C58.0207 299.348 57.2155 301.397 57.174 303.581C56.9582 315.168 57.7551 326.764 56.3855 338.284L0 336.611L1.23678 307.363C4.07556 305.313 7.54518 304.284 10.5334 302.527C19.0663 297.499 23.8723 293.575 31.1021 287.334C37.4935 281.82 46.8482 279.042 54.4681 275.721C55.6883 275.596 56.0784 276.951 56.7507 277.771H56.759Z" fill="#46B88E"/>
<path d="M158.349 283.987L159.121 288.639L168.302 288.998L164.89 340.694L120.208 339.958L121.868 283.15L158.349 283.987Z" fill="#027E50"/>
<path d="M324.982 313.227L320.882 261.481L367.265 258.938C368.195 261.933 365.132 263.858 364.817 266.075C364.559 267.882 365.423 275.495 364.949 276.917C364.377 278.632 362.625 278.649 361.563 280.331C360.799 281.536 359.421 285.92 359.313 287.317C359.097 290.103 361.521 292.236 361.405 294.462C361.322 296.034 359.662 296.938 359.322 298.16C358.898 299.691 360.027 301.196 359.836 302.744C359.645 304.292 358.151 305.145 358.151 305.296V318.239L341.567 319.075V313.227H324.991H324.982Z" fill="#027E50"/>
<path d="M197.312 199.629V224.686L188.555 225.473L188.198 234.718C182.047 233.956 175.913 236.173 169.953 234.709L170.368 231.329C169.098 228.275 158.233 230.267 155.037 229.698L155.793 225.222L152.531 223.431L155.859 214.279C155.486 212.329 149.999 213.107 148.397 213.007L149.235 187.95C151.501 188.552 153.543 189.464 155.851 190.041C159.221 190.886 165.039 191.029 167.48 191.815C171.265 193.028 178.719 202.465 183.832 203.695L197.304 199.629H197.312Z" fill="#027E50"/>
<path d="M165.811 236.383H181.566C181.35 238.29 183.965 243.402 182.18 244.582C181.632 244.95 180.263 244.54 180.014 244.799C179.308 245.519 180.404 252.346 179.931 254.178C179.69 255.115 177.772 255.065 177.532 256.06C177.432 256.462 178.121 263.473 178.271 264.351C179.034 268.643 184.23 267.079 187.376 267.288V275.646H173.282V280.666L168.302 280.657V287.35H160.009V282.33H143.433C142.877 280.958 142.852 276.666 143.483 275.679C143.574 275.537 144.454 276.825 146.264 274.792C153.693 266.451 149.476 247.727 153.435 236.182C153.684 235.454 156.299 234.659 155.029 231.371H167.878L169.123 233.454L165.811 236.383Z" fill="#027E50"/>
<path d="M198.972 198.792C201.778 198.215 204.998 199.403 207.538 199.311C210.817 199.194 215.523 197.931 218.453 197.956C223.118 197.998 227.036 201.461 233.062 200.022C234.349 199.713 235.445 198.056 236.532 197.763C241.662 196.4 247.256 196.433 251.191 192.108C250.933 203.561 253.282 214.956 251.191 226.351L219.317 227.246L218.412 224.628L198.972 224.686V198.792Z" fill="#46B88E"/>
<path d="M150.057 244.732V259.348C150.057 259.733 149.202 265.154 149.036 265.84C147.434 272.45 140.545 274.173 141.765 281.485H108.604C108.521 272.717 110.621 262.084 109.501 253.45C109.301 251.902 107.948 252.354 107.799 251.676C107.293 249.492 108.098 246.263 107.774 243.895L150.057 244.732Z" fill="#BAE0D2"/>
<path d="M108.596 218.002C106.072 217.416 103.275 216.73 100.661 217.098C99.0253 217.332 99.5898 218.872 99.0668 218.863C97.4814 218.847 96.4522 216.621 94.9249 216.621C94.6012 216.621 89.239 217.383 88.7078 217.5C87.4378 217.784 80.1001 220.378 79.5274 220.93C78.3487 222.076 80.042 223.716 78.3321 224.686C75.2028 224.762 75.7507 222.151 74.5969 220.98C70.8866 217.24 66.0639 218.269 61.3492 217.148C62.7852 210.648 64.2129 203.678 62.1876 197.119C77.7096 194.191 92.7169 187.841 108.637 186.62C111.053 188.351 108.314 213.383 108.604 217.993L108.596 218.002Z" fill="#027E50"/>
<path d="M154.199 214.664L151.236 224.745L154.249 226.025C154.357 228.769 154.207 231.471 153.303 234.057C153.112 234.592 150.148 239.11 150.065 239.453C149.791 240.599 150.53 243.87 149.617 243.904C136.411 241.118 122.831 242.557 109.418 242.222L110.248 214.655H154.182L154.199 214.664Z" fill="#BAE0D2"/>
<path d="M110.264 212.99C111.775 204.272 109.052 195.58 111.211 187.214C117.627 186.168 124.466 187.833 130.576 188C132.676 188.059 134.834 186.979 137.208 187.021C140.644 187.08 143.998 188.519 147.575 187.933L146.745 212.999H110.264V212.99Z" fill="#027E50"/>
<path d="M198.972 276.474C198.225 273.161 200.433 258.997 203.106 257.666C204.102 257.173 204.973 257.315 205.969 257.215C213.647 256.437 222.637 257.884 230.464 257.273C230.73 259.432 230.688 263.071 231.361 264.97C231.693 265.899 234.1 266.627 234.565 269.421C235.37 274.24 234.797 281.218 234.565 286.07C234.515 287.057 235.104 288.086 235.453 288.99C231.161 291.4 230.647 286.882 228.431 286.48C224.82 285.811 220.902 288.388 219.292 284.004L217.225 285.66V276.474H198.98H198.972Z" fill="#027E50"/>
<path d="M241.662 279.812C241.089 279.854 239.985 281.142 238.756 280.64C239.578 277.537 240.217 272.015 239.952 268.827C239.645 265.246 235.022 266.465 234.009 262.85C232.997 259.236 231.543 230.292 232.946 228.861L251.191 228.041C250.784 231.22 249.107 234.626 248.792 237.729C248.385 241.804 249.954 245.142 249.597 248.522C249.215 252.195 248.51 252.362 249.597 259.214C250.303 263.648 250.967 264.686 252.378 267.346C254.37 271.12 254.204 276.574 258.653 279.821C253.091 280.122 247.173 279.411 241.662 279.821V279.812Z" fill="#027E50"/>
<path d="M252.851 281.485C253.382 291.333 253.382 300.87 252.851 310.726H259.483L258.644 314.901L251.232 313.185L251.199 308.208C246.418 308.45 241.471 307.873 236.698 308.224C231.684 308.592 225.011 311.989 220.52 308.626V288.162L228.348 288.103L229.352 290.705L236.275 290.663C236.465 294.261 236.54 300.377 241.255 299.013C238.964 293.7 239.113 287.258 238.765 281.477H252.859L252.851 281.485Z" fill="#027E50"/>
<path d="M73.7834 224.67C70.6624 225.598 67.9896 227.974 69.6332 231.371L64.7524 227.472L66.8608 220.461C70.2225 220.194 72.7375 221.373 73.7834 224.678V224.67Z" fill="#027E50"/>
<path d="M620.108 430.172C617.784 434.966 624.499 436.12 626.292 440.278C628.101 439.81 631.712 441.676 632.152 441.651C633.007 441.6 634.584 438.379 636.684 439.358L640.004 446.863C631.496 450.544 623.951 456.258 615.7 460.391C604.37 466.063 592.185 470.071 580.589 475.133C570.08 479.717 557.107 488.577 545.702 490.092C540.398 490.794 536.505 488.326 531.417 491.982C530.039 479.701 528.229 467.67 523.954 456.066C528.511 455.806 527.93 459.948 530.171 460.282C534.903 460.985 535.276 457.823 536.77 457.664C540.506 457.254 543.129 459.479 545.843 459.362C549.487 459.203 554.118 456.852 553.388 452.728L555.007 451.381C557.181 451.54 559.547 452.694 561.68 452.719C570.462 452.786 587.038 451.188 595.48 449.197C601.166 447.85 609.118 438.245 614.272 435.577L620.124 430.189L620.108 430.172Z" fill="#46B88E"/>
<path d="M518.061 460.324C518.293 460.542 517.928 462.307 519.455 463.512C522.286 465.737 523.83 460.207 526.029 466.072C527.084 468.875 530.752 491.464 529.657 492.727L519.082 495.697C512.674 494.292 506.075 499.654 502.406 492.392C508.507 488.569 503.103 483.432 507.386 479.031C507.42 476.413 499.916 473.56 502.381 469.427L505.27 471.912C509.478 468.197 502.058 468.54 504.846 465.645C507.577 463.93 509.121 469.762 510.649 468.582L511.022 462.742C512.151 461.646 516.957 459.345 518.036 460.324H518.061Z" fill="#027E50"/>
<path d="M499.65 473.878C500.024 474.137 500.173 475.308 500.754 475.668C501.792 476.304 505.145 475.057 505.743 479.048C505.975 480.596 504.224 480.069 504.05 480.838C503.112 484.971 505.934 489.305 500.729 492.401L503.211 495.304L494.927 496.977C498.596 492.769 495.741 491.966 494.321 488.828C493.89 487.875 493.5 484.67 493.218 484.461C492.91 484.235 491.591 485.373 490.337 484.545C489.657 484.093 485.772 478.889 485.872 478.303C487.897 474.129 490.097 475.568 492.396 474.831C494.894 474.028 495.583 471.092 499.659 473.878H499.65Z" fill="#027E50"/>
<path d="M482.659 497.647C482.427 497.504 481.904 496.023 481.256 495.304C480.161 494.082 478.526 495.237 479.214 491.648C480.119 487.005 483.78 484.361 485.39 480.286C487.266 481.282 488.669 485.766 489.93 486.503C490.586 486.879 492.089 485.791 492.902 486.954C493.325 487.565 492.661 488.787 492.968 489.489C493.624 490.979 495.384 491.004 494.969 494.024C494.355 498.492 484.759 498.935 482.676 497.655L482.659 497.647Z" fill="#027E50"/>
<path d="M474.923 491.238C480.086 499.06 467.087 504.967 460.945 507C461.576 501.077 467.021 499.06 465.485 491.966L474.923 491.238Z" fill="#027E50"/>
<path d="M659.9 435.183C661.502 436.681 643.739 444.194 642.503 445.198C642.204 442.261 646.088 442.119 647.4 441.408C648.496 440.806 649.018 439.433 649.932 439.015C651.716 438.187 652.762 440.839 653.227 435.61L659.909 435.192L659.9 435.183Z" fill="#027E50"/>
<path d="M188.347 275.604L197.312 275.068C197.312 275.068 197.038 265.163 198.557 261.222C200.076 257.282 202.823 254.395 202.823 254.395L228.92 255.048L230.473 242.164V227.255L219.408 228.041L216.553 225.665L190.879 226.092L189.825 234.508L189.617 235.236L183.276 236.106V239.302L183.907 244.414L182.114 246.548L181.06 246.865L181.906 252.513C181.906 252.513 181.699 255.391 181.06 255.817C180.42 256.244 178.943 257.005 178.943 257.005C178.943 257.005 179.051 263.272 180.213 264.443C181.375 265.614 188.239 264.652 188.239 264.652L188.347 275.621V275.604Z" fill="#46B88E"/>
<path d="M231.635 310.558V340.426H300.919L300.072 321.334L300.28 319.075H302.073C302.073 319.075 301.757 316.013 302.073 315.587C302.388 315.16 301.649 313.453 301.334 311.328C301.019 309.203 300.487 307.496 300.28 305.79C300.072 304.083 299.433 302.067 299.433 300.36C299.433 298.653 299.118 295.566 299.118 295.566C299.118 295.566 292.353 294.796 289.664 295.03C286.974 295.265 286.177 296.628 286.177 296.628L289.821 299.18L291.091 300.778C291.091 300.778 290.618 302.937 290.46 303.815C290.303 304.694 290.145 306.367 290.145 306.367C290.145 306.367 289.514 307.404 287.53 307.086C285.546 306.768 283.33 306.844 282.376 306.526C281.421 306.208 278.491 305.17 278.491 305.17C278.491 305.17 275.876 303.656 274.764 305.329C273.652 307.003 273.577 309.245 273.104 309.881C272.631 310.517 269.46 310.441 269.46 310.441C269.46 310.441 264.546 309.078 262.488 309.036C260.429 308.994 260.321 314.892 260.321 314.892C260.321 314.892 259.533 316.858 258.661 316.858C257.789 316.858 254.619 314.691 253.506 314.892C252.394 315.093 249.912 312.968 249.97 312.759C250.028 312.55 249.97 308.45 249.597 308.55C249.223 308.651 234.432 309.672 234.432 309.672L231.635 310.55V310.558Z" fill="#BAE0D2"/>
<path d="M300.571 295.968C300.571 295.968 301.359 305.095 301.6 305.363C301.841 305.631 302.471 308.425 302.471 308.425L303.027 312.098C303.027 312.098 303.111 314.173 303.343 315.612C303.575 317.051 303.343 318.331 303.343 318.331L301.517 320.882V329.031C301.517 330.069 302.007 340.426 302.007 340.426L360.152 339.498C360.152 339.498 357.62 335.105 357.62 331.993C357.62 328.881 357.222 321.209 357.222 320.891C357.222 320.573 357.305 319.084 357.305 319.084C357.305 319.084 354.607 319.218 353.735 319.452C352.864 319.686 348.581 320.305 348.581 320.305H340.811C340.811 320.305 339.068 319.586 338.985 319.084C338.902 318.582 339.616 314.34 339.616 314.34L329.631 314.097C329.631 314.097 328.444 314.34 326.46 314.256C324.476 314.173 323.131 314.256 323.131 314.014C323.131 313.771 322.418 307.229 322.418 307.229L320.849 293.65L300.073 294.529L300.546 295.968H300.571Z" fill="#BAE0D2"/>
<path d="M252.062 189.372C252.062 189.372 253.291 212.212 253.448 213.651C253.606 215.09 252.751 225.657 252.751 225.657L250.435 236.014C250.435 236.014 250.593 240.967 251.224 242.088C251.855 243.209 252.834 244.113 252.054 248.263C251.274 252.412 251.141 256.462 252.054 258.168C252.967 259.875 253.814 261.682 254.444 263.172C255.075 264.661 254.652 264.452 255.814 266.476C256.976 268.501 256.129 269.672 256.661 269.672C257.192 269.672 262.687 270.099 265.011 269.672C267.335 269.245 274.623 269.865 274.623 269.865C274.623 269.865 279.803 270.266 281.911 269.865C284.019 269.463 288.352 269.145 288.352 269.145C288.352 269.145 285.555 255.918 286.817 254.412C288.078 252.906 287.447 252.22 294.005 252.136C300.562 252.053 306.472 252.647 310.274 252.136C314.075 251.626 317.877 250.639 317.877 250.639C317.877 250.639 318.085 246.297 317.877 242.038C317.67 237.78 317.528 230.827 316.856 229.296C316.184 227.765 314.922 226.067 314.075 223.08C313.229 220.093 312.598 219.248 312.805 216.688C313.013 214.128 313.436 213.718 312.382 211.585C311.328 209.451 313.436 210.94 307.941 207.535C302.446 204.13 301.176 203.545 300.861 203.545C300.546 203.545 296.503 202.984 296.503 202.984C296.503 202.984 295.391 202.022 295.316 202.9C295.242 203.779 296.105 204.415 294.287 205.619C292.469 206.824 292.145 207.619 290.643 207.293C289.141 206.966 288.585 206.264 288.111 206.297C287.638 206.331 285.97 206.506 284.783 206.297C283.596 206.088 282.799 206.013 281.928 205.452C281.056 204.892 280.973 204.331 279.786 204.657C278.599 204.984 275.744 204.9 274.714 205.059C273.685 205.218 270.913 204.816 270.913 204.816L269.643 202.022C269.643 202.022 270.357 202.022 268.14 202.106C265.924 202.189 264.339 202.022 262.911 201.788C261.483 201.553 259.665 199.713 259.823 197.077C259.981 194.442 259.508 186.452 259.508 186.134C259.508 185.816 258.636 182.144 258.636 182.144C258.636 182.144 255.117 190.393 252.046 189.389L252.062 189.372Z" fill="#BAE0D2"/>
<path d="M288.526 254.395C288.419 254.755 288.526 261.891 288.526 262.209C288.526 262.527 289.157 265.087 289.157 266.685C289.157 268.283 288.792 271.053 288.817 273.395C288.842 275.738 288.792 276.273 288.817 278.398C288.842 280.523 288.269 278.666 288.817 283.108C289.365 287.551 288.842 293.784 289.157 293.65C289.473 293.516 305.958 293.307 306.381 293.198C306.804 293.089 314.731 293.307 315.47 293.198C316.209 293.089 320.874 292.345 320.874 292.345C320.874 292.345 317.869 257.524 317.993 256.88C318.118 256.236 317.686 252.011 317.371 251.894C317.055 251.776 308.498 254.889 303.111 254.395C297.723 253.902 288.526 254.395 288.526 254.395Z" fill="#027E50"/>
<path d="M257.2 270.492C257.441 270.492 263.143 271.053 264.098 271.128C265.053 271.203 264.571 270.81 268.456 271.128C272.34 271.446 272.257 271.688 274.714 271.688H280.417C282.077 271.688 283.43 272.324 284.534 271.688C285.638 271.053 286.518 270.492 286.518 270.492C286.518 270.492 287.862 270.852 287.945 271.237C288.028 271.621 288.028 279.293 287.945 280.766C287.862 282.238 286.916 285.108 287.547 287.267C288.178 289.425 288.618 290.78 288.477 291.659C288.336 292.537 288.103 292.939 287.149 293.658C286.194 294.378 284.932 295.332 284.932 296.135C284.932 296.938 285.09 297.398 285.962 298.201C286.833 299.004 286.675 298.687 287.705 299.565C288.734 300.444 289.763 300.845 289.689 301.883C289.614 302.92 290.726 304.836 289.689 305.639C288.651 306.442 286.194 306.041 284.617 305.639C283.04 305.237 280.342 304.844 279.703 304.677C279.064 304.51 277.487 303.715 276.773 303.715C276.059 303.715 275.113 302.92 274.241 303.715C273.37 304.51 272.814 304.911 272.897 305.388C272.98 305.865 271.942 309.462 271.627 309.538C271.311 309.613 269.327 310.224 267.509 309.044C265.692 307.864 267.592 307.388 263.309 307.781C259.026 308.174 259.74 308.467 257.209 309.044C254.677 309.621 253.639 309.663 253.722 309.044C253.805 308.425 253.473 293.324 253.722 292.772C253.971 292.219 254.046 281.485 254.046 281.485C254.046 281.485 254.602 280.724 255.075 280.758C255.548 280.791 258.669 280.758 258.669 280.758C258.669 280.758 259.831 280.632 260.147 280.071C260.462 279.511 259.558 277.972 259.491 277.302C259.425 276.633 259.408 276.399 258.669 274.399C257.931 272.4 257.217 270.484 257.217 270.484L257.2 270.492Z" fill="#BAE0D2"/>
<path d="M314.175 208.138C314.175 208.138 314.598 209.518 315.022 212.187C315.445 214.856 314.914 215.592 315.553 217.408C316.192 219.223 316.607 219.114 316.923 221.457C317.238 223.8 317.454 223.691 317.553 225.607C317.653 227.523 320.525 234.341 320.044 238.173C319.562 242.005 320.21 245.945 320.044 248.288C319.878 250.63 319.355 256.913 319.562 257.658C319.77 258.403 317.03 259.465 321.463 259.465C325.895 259.465 349.203 256.587 352.341 256.913C355.478 257.24 360.55 258.194 363.298 257.549C366.045 256.905 366.917 257.34 367.431 257.014C367.946 256.688 368.477 255.843 369.108 254.245C369.739 252.647 368.685 255.525 370.063 250.622C371.44 245.719 371.332 244.448 371.332 244.448V243.904L364.783 244.448C364.783 244.448 361.065 244.556 359.596 244.556C358.126 244.556 356.433 245.192 356.333 244.766C356.234 244.339 355.379 240.005 355.379 239.721C355.379 239.436 354.64 236.349 354.64 236.349C354.64 236.349 351.469 237.094 351.046 237.202C350.623 237.311 347.983 237.094 347.875 236.667C347.767 236.24 346.821 237.094 346.713 233.789C346.605 230.484 346.506 227.615 346.29 227.188C346.074 226.761 346.921 226.125 345.128 225.381C343.335 224.636 342.488 224.527 339.741 221.122C336.993 217.717 333.399 212.388 333.084 212.179C332.768 211.97 327.805 209.409 327.381 209.409C326.958 209.409 323.895 209.727 322.94 209.945C321.986 210.162 318.217 210.689 317.993 210.581C317.769 210.472 314.175 207.602 314.175 207.602V208.138Z" fill="#027E50"/>
<path d="M516.077 52.4486L512.798 53.9378L511.529 56.707L507.727 59.7942C507.727 59.7942 505.511 62.1368 503.394 62.7726C501.277 63.4085 501.07 63.8351 497.584 64.2618C494.097 64.6885 485.963 65.2825 485.332 65.1487C484.701 65.0148 470.466 67.2486 465.909 67.8844C461.352 68.5203 457.866 69.9091 457.866 69.9091C457.866 69.9091 460.721 86.8426 460.928 87.3696C461.136 87.8967 462.091 91.6281 462.406 93.1173C462.721 94.6065 462.721 95.2507 462.829 96.9491C462.937 98.6475 463.253 99.1829 462.937 99.8271C462.622 100.471 447.515 101.961 447.515 101.961C447.515 101.961 448.992 109.097 449.208 110.477C449.424 111.858 449.947 113.991 449.947 114.845C449.947 115.698 450.055 116.761 450.154 117.614C450.254 118.467 446.984 121.872 446.984 122.19C446.984 122.508 444.344 123.362 444.552 123.788C444.759 124.215 449.623 130.707 450.154 131.034C450.686 131.36 451.001 131.778 451.848 132.523C452.694 133.267 452.055 134.012 453.641 134.121C455.226 134.229 457.866 132.949 459.028 133.267C460.19 133.585 458.92 132.732 461.244 133.585C463.568 134.439 464.523 134.33 464.838 134.865C465.153 135.401 466.075 135.719 466.357 136.246C466.639 136.773 466.847 137.735 466.847 137.735C466.847 137.735 468.54 140.931 468.432 141.249C468.324 141.567 466.216 143.056 468.009 142.629C469.802 142.203 489.457 137.409 490.827 137.308C492.197 137.208 499.7 138.371 504.664 136.773C509.628 135.175 511.852 134.539 515.546 132.832C519.24 131.126 520.302 129.854 520.302 129.528C520.302 129.201 519.032 126.758 517.771 121.864C516.509 116.97 516.716 115.472 516.077 112.703C515.438 109.934 513.645 109.139 513.222 107.625C512.798 106.11 512.267 104.077 512.591 101.952C512.915 99.8271 513.753 95.987 513.753 95.987C513.753 95.987 516.185 94.0711 515.969 93.2177C515.753 92.3643 514.276 89.8126 514.384 89.4947C514.492 89.1768 513.429 88.3234 515.654 88.0055L517.87 87.6876C517.87 87.6876 518.825 86.0896 519.879 84.9183C520.933 83.747 522.834 82.0403 522.834 81.7224C522.834 81.4044 520.618 77.6731 519.879 74.8034C519.14 71.9338 518.186 68.7294 518.186 67.4578C518.186 66.1861 516.816 62.028 516.816 62.028C516.816 62.028 514.807 60.0034 515.546 57.9787C516.285 55.954 516.077 52.4402 516.077 52.4402V52.4486Z" fill="#46B88E"/>
<path d="M455.326 146.478C455.326 146.478 478.783 141.684 480.368 141.157C481.954 140.63 484.485 139.668 485.971 139.241C487.457 138.814 490.511 138.814 490.511 138.814H496.43C498.961 138.814 507.42 138.279 509.528 137.216C511.636 136.154 517.347 133.594 518.086 133.493C518.825 133.393 519.671 131.577 520.833 134.347C521.995 137.116 521.572 140.839 520.302 143.934C519.032 147.03 517.239 150.326 517.239 151.816C517.239 153.305 516.608 155.756 517.555 156.927C518.501 158.099 519.563 160.441 520.51 158.525C521.456 156.609 521.987 151.498 523.573 151.389C525.158 151.28 526.104 151.389 527.59 153.305C529.076 155.221 529.383 156.283 530.022 158.734C530.661 161.186 531.715 161.822 531.923 165.98C532.13 170.138 532.238 194.199 531.923 198.567C531.607 202.934 532.96 209.644 532.122 213.902C531.284 218.161 530.445 220.821 531.076 223.272C531.707 225.724 532.554 227.849 532.396 228.175C532.238 228.501 532.413 229.455 532.413 229.455C532.413 229.455 528.852 229.288 525.996 228.945C523.141 228.602 522.933 229.179 517.97 228.945C513.006 228.711 511.528 229.882 508.565 229.455C505.602 229.028 503.701 228.535 503.286 228.945C502.871 229.355 500.431 233.287 499.592 233.555C498.754 233.822 497.691 240.633 498.322 241.277C498.953 241.921 502.971 247.426 499.8 248.187C496.629 248.949 493.458 245.962 490.503 244.899C487.548 243.837 484.377 249.35 481.207 243.929C478.036 238.508 478.252 236.7 476.342 233.555C474.433 230.409 471.902 228.117 470.001 228.945C468.1 229.773 465.56 227.196 465.56 227.196L455.309 146.503L455.326 146.478Z" fill="#46B88E"/>
<path d="M453.997 248.714C454.047 249.141 455.11 250.639 454.736 252.128C454.363 253.617 455.16 255.474 453.466 255.583C451.773 255.692 450.827 256.704 451.989 257.072C453.151 257.441 455.633 257.867 455.633 257.867C455.633 257.867 457.957 257.39 458.911 257.633C459.866 257.876 460.704 257.817 460.862 258.562C461.02 259.306 462.655 260.795 461.758 264.259C460.862 267.723 457.741 273.629 457.534 273.947C457.326 274.265 456.654 274.424 456.753 275.328C456.853 276.231 456.654 276.181 456.753 278.206C456.853 280.23 457.06 280.498 457.06 281.669C457.06 282.841 457.218 282.414 457.011 283.803C456.803 285.192 455.4 289.551 455.334 289.977C455.267 290.404 455.184 292.111 455.334 292.32C455.483 292.529 456.645 293.064 458.173 292.32C459.7 291.575 478.459 287.685 478.824 287.685C479.19 287.685 485.847 286.137 486.536 286.087C487.225 286.037 491.873 284.824 491.873 284.824H492.877C492.877 284.824 492.877 282.155 493.085 281.142C493.292 280.13 492.927 279.862 493.616 278.323C494.305 276.784 494.089 275.604 494.039 274.332C493.989 273.061 494.247 270.024 494.039 268.585C493.832 267.146 494.355 263.95 494.355 263.95C494.355 263.95 498.106 258.997 498.422 256.763C498.737 254.529 499.634 251.275 499.21 250.689C498.787 250.103 497.999 248.723 497.999 248.723C497.999 248.723 494.67 249.258 492.296 248.296C489.922 247.334 490.346 246.648 488.968 246.966C487.59 247.284 487.067 247.66 485.639 247.761C484.211 247.861 484.103 248.455 482.36 247.761C480.617 247.066 480.302 247.493 479.721 246.113C479.14 244.732 479.248 244.674 478.667 242.975C478.086 241.277 476.816 238.926 476.816 238.926L473.803 234.667L470.789 231.312C470.789 231.312 470.316 230.995 469.47 230.777C468.623 230.56 466.938 229.062 466.672 230.451C466.407 231.84 466.83 234.023 467.046 234.508C467.262 234.994 467.361 234.826 467.577 235.998C467.793 237.169 467.245 239.888 465.087 240.951C462.929 242.013 461.236 243.293 458.812 244.356C456.388 245.418 454.006 248.723 454.006 248.723L453.997 248.714Z" fill="#027E50"/>
</g>
<defs>
<clipPath id="clip0_6083_8273">
<rect width="660" height="507" fill="white"/>
</clipPath>
</defs>
</svg>
