<svg width="685" height="471" viewBox="0 0 685 471" fill="none" xmlns="http://www.w3.org/2000/svg">
<rect width="685" height="471" fill="white"/>
<rect x="1.18895" y="1.18895" width="682.622" height="468.622" stroke="black" stroke-opacity="0.24" stroke-width="2.37789"/>
<path d="M348.961 188H329.577V282.994H348.961V188Z" fill="#00D991"/>
<path d="M160 188.105H180.576V230.719L219.044 188.105H243.994L208.707 227.168L246.281 283H221.629L194.194 242.951L180.576 258.043V283H160V188.105Z" fill="#00D991"/>
<path fill-rule="evenodd" clip-rule="evenodd" d="M322.123 282.105H312.282C303.435 282.105 299.062 278.258 299.26 270.663C296.676 274.608 293.495 277.666 289.817 279.738C286.04 281.809 281.567 282.894 276.199 282.894C268.346 282.894 261.985 281.119 257.114 277.568C252.343 273.918 249.957 268.887 249.957 262.377C249.957 254.978 252.74 249.257 258.208 245.311C263.774 241.267 271.826 239.195 282.362 239.195H296.378V235.842C296.378 232.685 295.185 230.219 292.799 228.345C290.414 226.47 287.233 225.484 283.157 225.484C279.579 225.484 276.696 226.273 274.41 227.753C272.124 229.331 270.732 231.403 270.335 233.967H251.548C252.144 226.865 255.424 221.341 261.19 217.395C266.955 213.45 274.609 211.378 284.151 211.378C294.091 211.378 301.845 213.548 307.212 217.889C312.68 222.229 315.463 228.542 315.463 236.729V261.292C315.463 262.969 315.86 264.152 316.556 264.843C317.252 265.435 318.445 265.829 320.035 265.829H322.123V282.105ZM282.163 251.92C278.187 251.92 275.006 252.71 272.72 254.387C270.533 255.965 269.44 258.135 269.44 260.996C269.44 263.462 270.335 265.336 272.223 266.816C274.112 268.295 276.696 268.986 279.877 268.986C284.947 268.986 288.923 267.605 291.805 264.744C294.688 261.883 296.278 258.036 296.378 253.203V251.92H282.163Z" fill="#00D991"/>
<path d="M374.705 258.924C375.003 261.982 376.495 264.448 379.278 266.421C382.061 268.295 385.54 269.282 389.814 269.282C393.89 269.282 397.17 268.69 399.556 267.408C401.941 266.027 403.134 264.152 403.134 261.686C403.134 259.911 402.538 258.53 401.444 257.642C400.351 256.754 398.76 256.064 396.772 255.768C394.784 255.274 391.504 254.781 386.932 254.288C380.669 253.499 375.501 252.414 371.425 251.131C367.35 249.849 363.97 247.876 361.584 245.114C359.099 242.352 357.906 238.801 357.906 234.263C357.906 229.726 359.099 225.78 361.584 222.328C364.169 218.776 367.747 216.113 372.32 214.14C376.892 212.266 382.16 211.279 388.124 211.279C397.766 211.378 405.42 213.45 411.285 217.395C417.249 221.341 420.43 226.865 420.927 233.967H402.538C402.24 231.304 400.848 229.233 398.263 227.556C395.778 225.879 392.598 224.991 388.622 224.991C384.944 224.991 381.962 225.681 379.675 227.062C377.489 228.443 376.395 230.219 376.395 232.488C376.395 234.165 376.992 235.348 378.184 236.138C379.377 236.927 380.968 237.519 382.856 237.913C384.745 238.308 388.025 238.702 392.498 239.097C402.041 240.182 409.297 242.253 414.267 245.213C419.436 248.073 421.921 253.104 421.921 260.305C421.921 264.843 420.529 268.789 417.846 272.241C415.162 275.694 411.484 278.357 406.613 280.231C401.842 282.007 396.275 282.993 390.013 282.993C380.272 282.993 372.22 280.823 366.157 276.581C359.994 272.241 356.813 266.322 356.415 258.924H374.705Z" fill="#00D991"/>
<path d="M490.112 219.96C484.744 214.93 477.985 212.365 469.635 212.365C460.987 212.365 454.029 215.521 448.761 221.835V188H429.378V282.994H448.761V247.186C448.761 241.169 450.053 236.533 452.836 233.179C455.62 229.825 459.496 228.148 464.466 228.148C469.238 228.148 472.816 229.726 475.202 232.784C477.587 235.743 478.78 240.084 478.78 245.904V282.994H498.164V245.115C498.164 233.376 495.48 224.991 490.112 219.96Z" fill="#00D991"/>
<path d="M505.617 213.154H525V282.895H505.617V213.154Z" fill="#00D991"/>
<path d="M522.12 190.762C520.331 188.986 518.044 188 515.261 188C512.577 188 510.192 188.986 508.303 190.762C506.514 192.538 505.52 194.708 505.52 197.371C505.52 200.034 506.514 202.303 508.303 204.079C510.192 205.854 512.577 206.841 515.261 206.841C517.945 206.841 520.331 205.953 522.12 204.079C523.909 202.205 524.903 200.034 524.903 197.371C524.903 194.708 523.909 192.439 522.12 190.762Z" fill="#00D991"/>
</svg>
